# xmcd CD database file
#
# Track frame offsets:
#	150
#	22687
#	44725
#
# Disc length: 896 seconds
#
# Revision: 0
# Processed by: cddbd v1.5PL3 Copyright (c) Steve Scherf et al.
# Submitted via: CDex 1.51
#
DISCID=1b037e03
DTITLE=吉川晃司 - BOY'S LIFE
DYEAR=1995
DGENRE=Japanese Rock
TTITLE0=BOY'S LIFE
TTITLE1=Cafe de I Love You　〜愛という名のカフェテラス
TTITLE2=BOY'S LIFE （original KARAOKE）
EXTD=YEAR: 1995
EXTT0=
EXTT1=
EXTT2=
PLAYORDER=
